<svg xmlns="http://www.w3.org/2000/svg" xml:space="preserve" version="1.1" width="1377" height="180" style="shape-rendering:geometricPrecision; image-rendering:optimizeQuality;"
viewBox="0 0 137700 18000" >
    <path fill="#fff" d="M137754 2024l0 -2025 -14958 0c-1674,0 -3001,1325 -3001,3002l0 12030c0,1675 1327,3002 3001,3002l14958 0 0 -2027 -14958 0c-525,0 -974,-450 -974,-975l0 -12031c0,-525 449,-975 974,-975l14958 -1z"/>
    <path fill="#fff" d="M100012 9313l0 8720 2025 0 0 -6804c375,51 750,100 975,100l12006 0c1675,0 3002,-1351 3002,-3001l0 -5278c0,-1651 -1327,-3001 -3002,-3001l-15006 0 0 2051 15006 -26c526,0 975,451 975,976l0 5278c0,525 -449,950 -975,950l-15006 35z"/>
    <path fill="#fff" d="M79352 3947l14081 -21 0 4276 -14081 39 0 9792 3877 0 0 -5779c24,26 75,26 75,26 0,-100 -25,-150 -75,-150l5152 -26 4977 5929 4002 0 0 -1327c-1250,-1500 -2626,-3100 -3902,-4602l176 0c2050,0 3726,-1675 3726,-3701l0 -4652c0,-2026 -1676,-3702 -3726,-3702l-14282 0 0 3898z"/>
    <polygon fill="#fff" points="76901,24 60269,24 60269,18033 76901,18033 76901,14130 64195,14130 64195,10978 74425,10978 74425,7077 64195,7077 64195,3926 76901,3926 "/>
    <path fill="#fff" d="M40434 8271l0 9762 3878 0 0 -5779c24,26 74,26 74,26 0,-100 -24,-150 -74,-150l10404 -26c2051,0 3726,-1675 3726,-3701l0 -4652c0,-2026 -1675,-3702 -3726,-3702l-14282 0 0 3861 14082 16 0 4276 -14082 69z"/>
    <path fill="#fff" d="M35207 -1c-1801,2305 -3802,4811 -5627,7112l-5653 -7112 -4627 0c1400,1930 3477,4786 5053,6887l3276 4410 0 6737 3902 0 0 -6712 8354 -11322 -4678 0z"/>
    <polygon fill="#fff" points="14522,-1 14522,7077 3893,7077 3893,-1 15,-1 15,18033 3893,18033 3893,10978 14522,10978 14522,18033 18400,18033 18400,-1 "/>
</svg>
