<svg width="592" height="682" viewBox="0 0 592 682" fill="none" xmlns="http://www.w3.org/2000/svg">
<path d="M99.506 52.4971L167.973 0.652344L560.633 226.896C597.065 247.888 597.026 300.477 560.562 321.414L285.277 479.482L275.786 484.892V474.026L275.832 474.072L275.969 391.039V387.417L279.133 385.584L478.392 271.557L99.506 52.4971Z" fill="#C8FF21"/>
<path d="M0.987305 556.904L1.37887 161.713C1.42042 119.779 46.8117 93.5887 83.137 114.54L357.122 272.566L366.383 277.93L286.927 325.659L283.718 327.539L81.2493 210.624L80.5345 618.754L0.987305 556.904Z" fill="#C8FF21"/>
<path d="M591.076 367.968L219.163 581.175V349.363L215.862 347.575L135.213 303.331V313.968L134.685 627.17C134.614 669.151 180.027 695.457 216.408 674.509L591.613 458.472L591.076 367.968Z" fill="#C8FF21"/>
</svg>
